# xmcd CD database file
#
# Track frame offsets:
#	150
#	25975
#	53015
#	74695
#	99956
#	126267
#	150833
#	172575
#	199255
#	226889
#
# Disc length: 3415 seconds
#
# Revision: 0
# Processed by: cddbd v1.5PL3 Copyright (c) Steve Scherf et al.
# Submitted via: CDex 1.51
#
DISCID=750d550a
DTITLE=Dan Gibson - Solitudes - Forest Guitar
DYEAR=2002
DGENRE=New Age
TTITLE0=Appalachian Morning
TTITLE1=Clean and Clear
TTITLE2=In The Evening Air
TTITLE3=Sequoia Serenade
TTITLE4=Crimson Sky
TTITLE5=Spruce Woods
TTITLE6=Old Growth Stand
TTITLE7=Lake On The Mountain
TTITLE8=Under The Willow
TTITLE9=Moonlight Shimmer
EXTD=YEAR: 2002
EXTT0=
EXTT1=
EXTT2=
EXTT3=
EXTT4=
EXTT5=
EXTT6=
EXTT7=
EXTT8=
EXTT9=
PLAYORDER=
